HIERARCHY
ROOT root
{
	OFFSET 0.000000 0.000000 0.000000
	CHANNELS 6 Xposition Yposition Zposition Zrotation Yrotation Xrotation
	JOINT lhip
	{
		OFFSET 0.058581 -0.082280 -0.017664
		CHANNELS 3 Zrotation Yrotation Xrotation
		JOINT lknee
		{
			OFFSET 0.043451 -0.386469 0.008037
			CHANNELS 3 Zrotation Yrotation Xrotation
			JOINT lankle
			{
				OFFSET -0.014790 -0.426874 -0.037428
				CHANNELS 3 Zrotation Yrotation Xrotation
				JOINT ltoe
				{
					OFFSET 0.041054 -0.060286 0.122042
					CHANNELS 3 Zrotation Yrotation Xrotation
					End Site
					{
						OFFSET 0.000000 0.000000 0.000000
					}
				}
			}
		}
	}
	JOINT rhip
	{
		OFFSET -0.060310 -0.090513 -0.013543
		CHANNELS 3 Zrotation Yrotation Xrotation
		JOINT rknee
		{
			OFFSET -0.043257 -0.383688 -0.004843
			CHANNELS 3 Zrotation Yrotation Xrotation
			JOINT rankle
			{
				OFFSET 0.019056 -0.420046 -0.034562
				CHANNELS 3 Zrotation Yrotation Xrotation
				JOINT rtoe
				{
					OFFSET -0.034840 -0.062106 0.130323
					CHANNELS 3 Zrotation Yrotation Xrotation
					End Site
					{
						OFFSET 0.000000 0.000000 0.000000
					}
				}
			}
		}
	}
	JOINT lowerback
	{
		OFFSET 0.004439 0.124404 -0.038385
		CHANNELS 3 Zrotation Yrotation Xrotation
		JOINT upperback
		{
			OFFSET 0.004488 0.137956 0.026820
			CHANNELS 3 Zrotation Yrotation Xrotation
			JOINT chest
			{
				OFFSET -0.002265 0.056032 0.002855
				CHANNELS 3 Zrotation Yrotation Xrotation
				JOINT lowerneck
				{
					OFFSET -0.013390 0.211636 -0.033468
					CHANNELS 3 Zrotation Yrotation Xrotation
					JOINT upperneck
					{
						OFFSET 0.010113 0.088937 0.050410
						CHANNELS 3 Zrotation Yrotation Xrotation
						End Site
						{
							OFFSET 0.000000 0.000000 0.000000
						}
					}
				}
				JOINT lclavicle
				{
					OFFSET 0.071702 0.114000 -0.018898
					CHANNELS 3 Zrotation Yrotation Xrotation
					JOINT lshoulder
					{
						OFFSET 0.122921 0.045205 -0.019046
						CHANNELS 3 Zrotation Yrotation Xrotation
						JOINT lelbow
						{
							OFFSET 0.255332 -0.015649 -0.022946
							CHANNELS 3 Zrotation Yrotation Xrotation
							JOINT lwrist
							{
								OFFSET 0.265709 0.012698 -0.007375
								CHANNELS 3 Zrotation Yrotation Xrotation
								End Site
								{
									OFFSET 0.000000 0.000000 0.000000
								}
							}
						}
					}
				}
				JOINT rclavicle
				{
					OFFSET -0.082954 0.112472 -0.023707
					CHANNELS 3 Zrotation Yrotation Xrotation
					JOINT rshoulder
					{
						OFFSET -0.113228 0.046853 -0.008472
						CHANNELS 3 Zrotation Yrotation Xrotation
						JOINT relbow
						{
							OFFSET -0.260127 -0.014369 -0.031269
							CHANNELS 3 Zrotation Yrotation Xrotation
							JOINT rwrist
							{
								OFFSET -0.269108 0.006794 -0.006027
								CHANNELS 3 Zrotation Yrotation Xrotation
								End Site
								{
									OFFSET 0.000000 0.000000 0.000000
								}
							}
						}
					}
				}
			}
		}
	}
}
MOTION
Frames: 8
Frame Time: 0.033333
-2.100735 0.639209 1.007747 -69.741377 2.481007 86.732384 -2.603422 2.928422 0.303033 -1.645701 -3.651870 9.899424 6.833394 11.363856 -10.717328 0.000000 -0.000000 0.000000 -4.476179 -9.384951 -0.603688 -5.360732 -6.600959 17.185370 3.923861 -14.581581 -7.142291 0.000000 -0.000000 0.000000 0.039391 3.505326 7.860089 -2.884129 0.273007 -2.980955 -0.447123 3.077716 -3.873963 -1.509861 2.744397 -8.244943 -1.654493 6.454570 3.798143 -22.409509 -13.555425 6.224474 -51.738075 -10.073600 11.101295 -1.639209 -5.482399 26.478728 -7.841339 -11.135628 0.695292 18.837137 20.755335 9.439308 41.757073 21.409875 6.353235 -4.980030 12.571454 5.750181 5.692284 4.067706 6.893073 
-2.102440 0.632971 1.007057 -65.868174 2.569982 86.720547 -3.341190 1.952654 0.759401 -1.121650 -6.231691 9.628233 7.671507 11.174347 -10.940878 0.000000 -0.000000 0.000000 -4.433027 -8.877436 -2.701145 -5.967866 -7.003575 23.365050 3.110565 -16.515834 -6.540666 0.000000 -0.000000 0.000000 0.499893 3.672700 8.323352 -2.645003 1.581086 -3.056937 -0.454103 3.565912 -3.474846 -1.489407 3.927018 -8.451279 -2.422346 6.637268 4.217150 -22.119818 -10.609504 6.708357 -52.924384 -6.621277 11.261677 -3.411147 -5.554486 30.099022 -8.521254 -10.361819 0.609512 20.273509 19.490582 10.454951 44.637406 20.255927 8.359056 -3.776979 12.857821 7.896202 5.840673 3.780190 8.390446 
-2.105254 0.624068 1.007017 -60.626621 2.345323 86.062678 -4.739204 -0.750951 2.895487 -0.360935 -9.012261 8.325605 8.429125 12.045272 -12.137745 0.000000 -0.000000 0.000000 -4.798259 -6.765329 -4.934380 -6.745267 -8.131996 31.885479 1.461995 -17.781887 -3.752796 0.000000 -0.000000 0.000000 0.888610 4.535279 9.163042 -2.678465 3.266225 -2.535241 0.377616 3.916358 -2.803985 -1.540540 5.906043 -7.950377 -3.452526 7.765981 2.479273 -22.685274 -7.844743 5.621208 -51.664708 -0.986863 11.350528 -5.122614 -5.472626 25.196986 -9.830592 -9.028829 7.286671 21.457208 18.494078 9.574319 47.677017 18.878618 12.478490 -1.209688 13.375685 10.717092 7.195543 3.920688 12.082675 
-2.107575 0.618798 1.005755 -54.488355 1.957351 86.056255 -4.961632 -2.091969 3.098904 -1.370137 -13.166834 8.755067 8.358351 11.844743 -12.574556 0.000000 -0.000000 0.000000 -4.553116 -4.944863 -7.511492 -4.421515 -5.592153 37.869954 1.491783 -14.963959 -6.003065 0.000000 -0.000000 0.000000 0.680602 5.059566 9.820210 -2.198961 4.585095 -2.497210 0.577881 4.413009 -2.385203 -0.464704 9.153015 -8.264081 -4.531169 7.941108 3.291866 -21.784586 -5.537724 5.333427 -49.074863 3.335905 10.630564 -5.718700 -5.462605 24.435882 -9.857705 -8.542199 8.389866 22.776995 18.534252 10.036068 50.099698 19.610538 14.887806 0.835494 13.637992 13.217302 7.262003 4.143852 10.795541 
-2.109342 0.613781 1.005436 -47.249095 1.564702 86.265603 -5.290769 -3.816882 2.562757 -2.361585 -17.678523 10.125941 7.929449 11.055025 -12.194708 0.000000 -0.000000 0.000000 -3.385189 -3.443860 -9.413771 -2.070628 -3.027375 39.728673 1.631741 -13.460765 -9.689284 0.000000 -0.000000 0.000000 1.013843 5.266646 10.497341 -1.859293 5.057149 -2.516831 0.313918 4.974563 -2.161058 -0.207471 12.138584 -8.171358 -5.358721 7.454535 3.411331 -20.720336 -4.482397 5.091332 -45.175112 6.646938 9.835402 -5.589340 -5.198362 23.776921 -10.329094 -7.478173 10.446120 23.642343 19.739639 10.364739 51.726173 20.926823 16.573712 2.120593 14.466393 14.867445 6.500984 4.276721 9.095802 
-2.111034 0.607645 1.006260 -39.449166 0.810482 86.358844 -6.557536 -5.697321 2.163182 -2.726609 -22.170218 11.867557 7.583555 10.070803 -12.071283 0.000000 -0.000000 0.000000 -2.657398 -2.178358 -10.948196 -0.988266 -1.459662 39.363978 1.570002 -13.280000 -12.429450 0.000000 -0.000000 0.000000 1.025344 5.587039 11.054246 -1.670251 5.451357 -2.782242 0.393633 5.603897 -2.024433 0.271814 14.350775 -7.491721 -6.093675 7.674912 3.667413 -18.854381 -3.187090 3.962684 -42.232829 8.036437 9.037651 -4.873702 -4.820964 22.481030 -9.613148 -8.108489 12.364894 23.365196 20.158774 9.813671 52.538351 22.408318 17.908745 2.992945 15.959086 16.686276 6.913188 4.771563 8.425977 
-2.113855 0.601875 1.008025 -31.260584 0.186185 86.202687 -7.634914 -7.666561 2.640483 -2.500044 -26.972460 12.487132 6.427261 9.175934 -11.008347 0.000000 -0.000000 0.000000 -1.536886 -0.354071 -11.033435 -1.588993 0.724022 35.270325 2.216326 -11.546430 -14.137629 0.000000 -0.000000 0.000000 1.049587 5.912376 11.590526 -1.531127 5.832285 -3.013332 0.610873 6.301132 -1.748673 0.660276 16.440018 -6.619230 -6.283061 7.885808 3.749017 -16.270807 -2.311074 2.441853 -39.712036 8.074287 8.742312 -5.062343 -5.470377 20.747580 -9.465384 -8.088324 11.601072 22.593534 20.336437 8.991824 52.104655 23.848796 18.278738 3.185466 17.218827 16.986476 7.350491 4.639870 6.662694 
-2.115409 0.597569 1.010120 -22.356172 -0.633770 86.156960 -7.917875 -9.421040 2.702667 -3.673551 -30.993194 12.855871 5.437045 6.929396 -9.526109 0.000000 -0.000000 0.000000 -1.085779 2.000678 -10.903325 -1.224385 4.171525 29.649815 3.153277 -9.204512 -14.476890 0.000000 -0.000000 0.000000 1.023012 6.019475 12.260129 -1.484736 6.007328 -3.273795 0.939448 6.388511 -1.673911 0.831624 17.805076 -5.552475 -6.523471 8.072483 3.661714 -14.600385 -1.792130 0.938270 -38.822586 7.241438 8.316725 -4.044871 -5.955059 19.462671 -11.228711 -7.702065 11.316463 21.199815 20.718501 8.265354 51.019835 25.117124 17.794491 2.065900 17.398924 15.801784 7.832824 4.224749 4.896708 
